<?xml version="1.0" encoding="utf-8"?>
<!-- Generator: Adobe Illustrator 25.3.1, SVG Export Plug-In . SVG Version: 6.00 Build 0)  -->
<svg version="1.1" id="Layer_1" xmlns="http://www.w3.org/2000/svg" xmlns:xlink="http://www.w3.org/1999/xlink" x="0px" y="0px"
	 viewBox="0 0 400 400" style="enable-background:new 0 0 400 400;" xml:space="preserve">
<style type="text/css">
	.st0{fill:#3254A1;}
	.st1{display:none;fill:#3254A1;}
	.st2{font-family:'TwCenMT-Regular';}
	.st3{font-size:99.8507px;}
	.st4{letter-spacing:7;}
	.st5{font-size:28.219px;}
	.st6{letter-spacing:2;}
</style>
<circle class="st0" cx="175.7" cy="47" r="3.5"/>
<circle class="st0" cx="156.8" cy="72.9" r="4.9"/>
<circle class="st0" cx="208.3" cy="65.4" r="4.9"/>
<circle class="st0" cx="255.7" cy="78.7" r="4.9"/>
<circle class="st0" cx="296.9" cy="106" r="4.9"/>
<circle class="st0" cx="331.1" cy="198.6" r="4.9"/>
<circle class="st0" cx="324.5" cy="149.3" r="4.9"/>
<circle class="st0" cx="324.4" cy="247.8" r="4.9"/>
<circle class="st0" cx="296.8" cy="291.4" r="4.9"/>
<circle class="st0" cx="255.8" cy="318.7" r="4.9"/>
<circle class="st0" cx="208.3" cy="332.2" r="4.9"/>
<circle class="st0" cx="157" cy="324.7" r="4.9"/>
<circle class="st0" cx="113.7" cy="298.4" r="4.9"/>
<circle class="st0" cx="85.5" cy="256.8" r="4.9"/>
<circle class="st0" cx="72.7" cy="208.5" r="4.9"/>
<circle class="st0" cx="72.7" cy="188.9" r="4.9"/>
<circle class="st0" cx="85.6" cy="140.4" r="4.9"/>
<circle class="st0" cx="113.9" cy="98.9" r="4.9"/>
<circle class="st0" cx="142.9" cy="106.9" r="6.6"/>
<circle class="st0" cx="182.7" cy="91.8" r="6.6"/>
<circle class="st0" cx="223.2" cy="93.6" r="6.6"/>
<circle class="st0" cx="261.2" cy="107.7" r="6.6"/>
<circle class="st0" cx="291.4" cy="137.9" r="6.6"/>
<circle class="st0" cx="305.6" cy="176.2" r="6.6"/>
<circle class="st0" cx="305.6" cy="220.8" r="6.6"/>
<circle class="st0" cx="291.1" cy="259.2" r="6.6"/>
<circle class="st0" cx="260.9" cy="288.9" r="6.6"/>
<circle class="st0" cx="223.2" cy="303.6" r="6.6"/>
<circle class="st0" cx="182.7" cy="305.4" r="6.6"/>
<circle class="st0" cx="143" cy="289.8" r="6.6"/>
<circle class="st0" cx="113.1" cy="260.8" r="6.6"/>
<circle class="st0" cx="98.3" cy="222.5" r="6.6"/>
<circle class="st0" cx="98.3" cy="174.5" r="6.6"/>
<circle class="st0" cx="116.8" cy="198.6" r="10.9"/>
<circle class="st0" cx="121.5" cy="166.1" r="10.9"/>
<circle class="st0" cx="140.3" cy="138.4" r="10.9"/>
<circle class="st0" cx="167.7" cy="120.9" r="10.9"/>
<circle class="st0" cx="199.4" cy="115.9" r="10.9"/>
<circle class="st0" cx="231.3" cy="120.9" r="10.9"/>
<circle class="st0" cx="259" cy="138.4" r="10.9"/>
<circle class="st0" cx="276" cy="166" r="10.9"/>
<circle class="st0" cx="283.9" cy="198.5" r="10.9"/>
<circle class="st0" cx="276" cy="231" r="10.9"/>
<circle class="st0" cx="258.9" cy="258" r="10.9"/>
<circle class="st0" cx="231.1" cy="276.7" r="10.9"/>
<circle class="st0" cx="200.1" cy="281.1" r="10.9"/>
<circle class="st0" cx="168.2" cy="275.9" r="10.9"/>
<circle class="st0" cx="139.9" cy="258" r="10.9"/>
<circle class="st0" cx="121.5" cy="231.4" r="10.9"/>
<circle class="st0" cx="113.1" cy="136.2" r="6.6"/>
<circle class="st0" cx="121.3" cy="68.5" r="3.5"/>
<circle class="st0" cx="80.7" cy="110" r="3.5"/>
<circle class="st0" cx="55.9" cy="162.8" r="3.5"/>
<circle class="st0" cx="55.9" cy="234.8" r="3.5"/>
<circle class="st0" cx="80.6" cy="287.3" r="3.5"/>
<circle class="st0" cx="121.3" cy="329" r="3.5"/>
<circle class="st0" cx="175.6" cy="350" r="3.5"/>
<circle class="st0" cx="235.6" cy="348.3" r="3.5"/>
<circle class="st0" cx="287.4" cy="323.6" r="3.5"/>
<circle class="st0" cx="328" cy="284.5" r="3.5"/>
<circle class="st0" cx="350.9" cy="228.7" r="3.5"/>
<circle class="st0" cx="350.9" cy="168.6" r="3.5"/>
<circle class="st0" cx="327.9" cy="112.7" r="3.5"/>
<circle class="st0" cx="286.9" cy="73.8" r="3.5"/>
<circle class="st0" cx="235.4" cy="49.1" r="3.5"/>
<text transform="matrix(1 0 0 1 25.4078 310.8088)" class="st1 st2 st3 st4">AWURA</text>
<text transform="matrix(1 0 0 1 78.6187 378.8264)" class="st1 st2 st5 st6">www.awuraplc.org</text>
</svg>
